<mxfile host="app.diagrams.net" modified="2021-12-03T09:42:36.276Z" agent="5.0 (Windows NT 10.0; Win64; x64) AppleWebKit/537.36 (KHTML, like Gecko) Chrome/96.0.4664.45 Safari/537.36" etag="tqXGxXA8D7jnc7eMDyGr" version="15.8.9" type="github">
  <diagram id="QeuJrWsxpdJ-v0ihTmOp" name="Page-1">
    <mxGraphModel dx="813" dy="458" grid="1" gridSize="10" guides="1" tooltips="1" connect="1" arrows="1" fold="1" page="1" pageScale="1" pageWidth="827" pageHeight="1169" math="0" shadow="0">
      <root>
        <mxCell id="0" />
        <mxCell id="1" parent="0" />
        <mxCell id="3zdXNSKU6I3OWT0Rs-21-1" value="BankAccount" style="swimlane;fontStyle=1;align=center;verticalAlign=top;childLayout=stackLayout;horizontal=1;startSize=26;horizontalStack=0;resizeParent=1;resizeParentMax=0;resizeLast=0;collapsible=1;marginBottom=0;" vertex="1" parent="1">
          <mxGeometry x="334" y="120" width="230" height="210" as="geometry">
            <mxRectangle x="334" y="120" width="60" height="26" as="alternateBounds" />
          </mxGeometry>
        </mxCell>
        <mxCell id="3zdXNSKU6I3OWT0Rs-21-2" value="- balance: int&#xa;- overDraft = - 5000: int" style="text;strokeColor=none;fillColor=none;align=left;verticalAlign=top;spacingLeft=4;spacingRight=4;overflow=hidden;rotatable=0;points=[[0,0.5],[1,0.5]];portConstraint=eastwest;" vertex="1" parent="3zdXNSKU6I3OWT0Rs-21-1">
          <mxGeometry y="26" width="230" height="94" as="geometry" />
        </mxCell>
        <mxCell id="3zdXNSKU6I3OWT0Rs-21-3" value="" style="line;strokeWidth=1;fillColor=none;align=left;verticalAlign=middle;spacingTop=-1;spacingLeft=3;spacingRight=3;rotatable=0;labelPosition=right;points=[];portConstraint=eastwest;" vertex="1" parent="3zdXNSKU6I3OWT0Rs-21-1">
          <mxGeometry y="120" width="230" height="8" as="geometry" />
        </mxCell>
        <mxCell id="3zdXNSKU6I3OWT0Rs-21-4" value="+ checkBalance(): void&#xa;+ desposit(int amountToDesposit): void&#xa;+ withDraw(int amountToWithDraw): int&#xa;+ toString(): String&#xa;" style="text;strokeColor=none;fillColor=none;align=left;verticalAlign=top;spacingLeft=4;spacingRight=4;overflow=hidden;rotatable=0;points=[[0,0.5],[1,0.5]];portConstraint=eastwest;" vertex="1" parent="3zdXNSKU6I3OWT0Rs-21-1">
          <mxGeometry y="128" width="230" height="82" as="geometry" />
        </mxCell>
      </root>
    </mxGraphModel>
  </diagram>
</mxfile>
